<svg id="Master_Line" enable-background="new 0 0 512 512" height="512" viewBox="0 0 512 512" width="512"
  xmlns="http://www.w3.org/2000/svg">
  <path
    d="m175.82 298.32c16.54 5.41 33.02 12.03 49.3 19.87 2.65 1.28 5.72-.66 5.72-3.61v-75.5c0-1.52-.86-2.92-2.23-3.6-16.59-8.18-33.4-15.09-50.26-20.73-2.6-.87-5.29 1.05-5.29 3.79v75.98c0 1.74 1.12 3.26 2.76 3.8z"
    fill="#f76c82" />
  <path
    d="m432.24 182.35v-102.19c0-4.03-3.39-7.24-7.41-7-46.11 2.79-93.71 15.31-139.75 37.55-2.41 1.16-3.93 3.62-3.93 6.29v101.61c0 2.91 3.02 4.85 5.66 3.63 45.83-21.18 94.68-33.58 141.61-35.91 2.14-.1 3.82-1.85 3.82-3.98z"
    fill="#f76c82" />
  <g fill="#424852">
    <path
      d="m482 93.21h-1.9v-13.68c0-7.44-6.06-13.5-13.5-13.5h-5.7v-14.47c0-9.65-7.85-17.5-17.5-17.5-59.87 0-118.53 16.49-169.63 47.7l-17.77 10.85-17.77-10.85c-51.1-31.2-109.76-47.7-169.63-47.7-9.65 0-17.5 7.85-17.5 17.5v14.46h-5.7c-7.44 0-13.5 6.06-13.5 13.5v308.66c0 3.9 1.69 7.61 4.63 10.17s6.84 3.73 10.71 3.2c62.21-8.54 126.68-2.88 186.45 16.36l.9.54 12.29 7.51c2.81 1.72 5.97 2.58 9.12 2.58s6.31-.86 9.12-2.58l12.29-7.51c50-30.53 107.4-46.67 165.98-46.67 9.65 0 17.5-7.85 17.5-17.5v-281.25h5.7c3.58 0 6.5 2.92 6.5 6.5v308.66c0 1.88-.81 3.66-2.23 4.9-1.42 1.23-3.3 1.8-5.16 1.54-40.11-5.51-80.61-4.39-120.36 3.33-1.9.37-3.14 2.21-2.77 4.1.32 1.67 1.79 2.83 3.43 2.83.22 0 .45-.02.67-.06 39-7.57 78.72-8.67 118.08-3.27 3.86.53 7.77-.63 10.71-3.2 2.94-2.56 4.63-6.27 4.63-10.17v-287.98h1.9c5.79 0 10.5 4.71 10.5 10.5v302.72c0 5.79-4.71 10.5-10.5 10.5h-184.26c-4.31 0-8.43 2.06-11.02 5.5l-6.94 9.23c-5.59 7.43-14.47 11.87-23.77 11.87s-18.18-4.44-23.77-11.87l-6.94-9.23c-2.59-3.44-6.71-5.5-11.02-5.5h-184.27c-5.79 0-10.5-4.71-10.5-10.5v-302.72c0-1.93-1.57-3.5-3.5-3.5s-3.5 1.57-3.5 3.5v302.72c0 9.65 7.85 17.5 17.5 17.5h184.27c2.12 0 4.15 1.01 5.43 2.71l6.94 9.23c6.9 9.18 17.88 14.66 29.37 14.66s22.46-5.48 29.37-14.66l6.94-9.23c1.28-1.7 3.3-2.71 5.43-2.71h184.25c9.65 0 17.5-7.85 17.5-17.5v-302.72c0-9.65-7.85-17.5-17.5-17.5zm-435.71 301.41c-1.86.26-3.74-.31-5.16-1.54s-2.23-3.02-2.23-4.9v-308.65c0-3.58 2.92-6.5 6.5-6.5h5.7v281.26c0 9.65 7.85 17.5 17.5 17.5 47.57 0 94.35 10.64 137.02 30.98-51.96-12.57-106.45-15.41-159.33-8.15zm407.61-40.33c0 5.79-4.71 10.5-10.5 10.5-59.88 0-118.53 16.49-169.63 47.7l-12.29 7.51c-3.38 2.06-7.57 2.06-10.94 0l-12.29-7.51c-51.1-31.2-109.76-47.7-169.63-47.7-5.79 0-10.5-4.71-10.5-10.5v-302.73c0-5.79 4.71-10.5 10.5-10.5 58.59 0 115.98 16.14 165.98 46.67l17.91 10.94v260.05c0 1.93 1.57 3.5 3.5 3.5s3.5-1.57 3.5-3.5v-260.05l17.91-10.94c50-30.53 107.4-46.67 165.98-46.67 5.79 0 10.5 4.71 10.5 10.5z" />
    <path
      d="m432.24 195.13c-1.93 0-3.5 1.57-3.5 3.5v130.76c0 1.85-1.44 3.38-3.29 3.49-16.62.96-33.24 3.18-49.82 6.55v-66.51-.01-66.98c0-1.93-1.57-3.5-3.5-3.5s-3.5 1.57-3.5 3.5v64.22c-24.52 5.51-49 13.64-72.81 24.2-1.77.78-2.56 2.85-1.78 4.62.58 1.31 1.86 2.08 3.2 2.08.47 0 .96-.1 1.42-.3 22.89-10.15 46.41-18.02 69.97-23.42v14.02c-2.69-2.57-6.61-3.81-10.59-2.78-9.12 2.35-18.23 5.07-27.33 8.16-22.43 7.62-39.23 25.51-46.07 47.33v-108.6c0-1.93-1.57-3.5-3.5-3.5s-3.5 1.57-3.5 3.5v129.31c0 3.6 1.81 6.92 4.85 8.86 1.72 1.1 3.67 1.65 5.63 1.65 1.49 0 2.99-.32 4.4-.97 43.71-20.26 88.56-31.85 133.32-34.44 5.54-.32 9.88-4.92 9.88-10.47v-130.77c.02-1.94-1.54-3.5-3.48-3.5z" />
    <path
      d="m256 375.37c-1.93 0-3.5 1.57-3.5 3.5v25.69c0 1.93 1.57 3.5 3.5 3.5s3.5-1.57 3.5-3.5v-25.69c0-1.93-1.57-3.5-3.5-3.5z" />
    <path
      d="m228.47 107.56c-46.07-22.45-93.53-35.4-141.05-38.48-2.87-.19-5.74.84-7.84 2.81-2.11 1.98-3.32 4.78-3.32 7.67v249.22c0 5.53 4.32 10.13 9.84 10.47 44.77 2.78 89.63 14.55 133.33 34.99 1.42.66 2.93.99 4.43.99 1.96 0 3.9-.55 5.62-1.65 3.05-1.94 4.87-5.25 4.87-8.87v-33c0-1.93-1.57-3.5-3.5-3.5s-3.5 1.57-3.5 3.5v33c0 1.22-.59 2.3-1.63 2.96-1.02.65-2.23.73-3.33.22-44.5-20.81-90.21-32.8-135.87-35.63-1.83-.11-3.27-1.64-3.27-3.48v-44.57c25.07 1.34 50.56 5.6 75.84 12.67.32.09.63.13.95.13 1.53 0 2.94-1.01 3.37-2.56.52-1.86-.56-3.79-2.43-4.31-25.89-7.25-52.02-11.6-77.73-12.94v-77.39c26.02 1.39 52.48 5.92 78.7 13.49.32.09.65.14.97.14 1.52 0 2.92-1 3.36-2.53.54-1.86-.54-3.8-2.39-4.33-7.57-2.19-15.17-4.12-22.77-5.8v-116.83c28.39 6.42 56.58 16.41 84.28 29.91 1.18.57 1.94 1.81 1.94 3.14v106.81c0 1.93 1.57 3.5 3.5 3.5s3.5-1.57 3.5-3.5v-106.82c.01-3.99-2.3-7.69-5.87-9.43zm-94.34 19.57c-6.92-17.76-23.43-30.84-43.45-32.5-.19-.02-.38-.03-.58-.05-2.59-.21-5 .63-6.85 2.14v-17.15c0-.98.4-1.89 1.11-2.56s1.64-1 2.6-.94c15.74 1.02 31.48 3.15 47.16 6.37v44.69z" />
  </g>
  <g fill="#d4e1e8">
    <path
      d="m467.58 414.58c1.63 1.52.55 4.25-1.68 4.25h-123.35c-1.58 0-2.09-2.11-.69-2.84 7.62-3.96 15.98-6.28 24.55-6.82l73.38-4.56c10.24-.64 20.29 2.97 27.79 9.97z" />
    <path
      d="m60.06 415.19c-1.4 1.3-.47 3.64 1.44 3.64h105.76c1.35 0 1.79-1.81.6-2.44-6.53-3.4-13.7-5.39-21.05-5.84l-62.92-3.91c-8.79-.55-17.4 2.54-23.83 8.55z" />
  </g>
</svg>